<?xml version="1.0" standalone="no"?>
<!DOCTYPE svg PUBLIC "-//W3C//DTD SVG 20010904//EN"
 "http://www.w3.org/TR/2001/REC-SVG-20010904/DTD/svg10.dtd">
<svg version="1.0" xmlns="http://www.w3.org/2000/svg"
 width="500.000000pt" height="500.000000pt" viewBox="0 0 500.000000 500.000000"
 preserveAspectRatio="xMidYMid meet">
<metadata>
Created by potrace 1.16, written by Peter Selinger 2001-2019
</metadata>
<g transform="translate(0.000000,500.000000) scale(0.100000,-0.100000)"
fill="#000000" stroke="none">
<path d="M1418 2895 c-176 -49 -202 -60 -248 -107 -65 -65 -75 -143 -36 -283
l22 -80 13 48 c33 116 116 174 332 233 74 20 146 42 160 50 55 28 59 115 7
159 -40 34 -64 32 -250 -20z"/>
<path d="M1975 2676 c-40 -17 -55 -37 -62 -81 l-6 -36 34 20 c28 17 51 21 125
21 57 0 94 4 102 12 18 18 14 56 -7 68 -27 14 -150 12 -186 -4z"/>
<path d="M3120 2661 c-5 -11 -10 -35 -10 -55 0 -34 0 -35 -32 -25 -74 22 -170
-38 -188 -117 -25 -109 76 -209 186 -184 46 11 101 64 114 110 14 51 13 263
-2 278 -18 18 -56 14 -68 -7z m-28 -178 c43 -38 9 -123 -50 -123 -66 0 -98 74
-52 120 24 24 77 26 102 3z"/>
<path d="M1515 2643 c-85 -19 -187 -57 -222 -83 -59 -43 -87 -105 -81 -178 3
-31 13 -84 23 -117 18 -57 19 -58 25 -30 19 87 95 145 255 195 111 35 147 88
109 161 -12 24 -72 64 -86 58 -2 -1 -12 -3 -23 -6z"/>
<path d="M2208 2579 c-15 -8 -18 -25 -18 -100 0 -103 12 -134 66 -175 65 -50
165 -32 218 39 17 23 22 46 24 127 4 91 2 99 -17 110 -15 8 -27 8 -41 0 -17
-9 -20 -21 -20 -86 0 -104 -17 -134 -77 -134 -53 0 -73 37 -73 131 0 67 -3 80
-19 89 -23 12 -22 12 -43 -1z"/>
<path d="M2630 2568 c-64 -32 -90 -87 -90 -188 0 -81 9 -100 47 -100 32 0 43
28 43 113 0 85 17 110 72 110 51 0 68 -31 68 -123 0 -84 10 -104 52 -98 22 3
23 7 26 103 3 119 -12 154 -81 185 -55 25 -83 25 -137 -2z"/>
<path d="M3343 2578 c-17 -6 -46 -26 -64 -44 -27 -28 -33 -43 -37 -90 -8 -102
47 -164 148 -164 92 0 154 60 154 149 0 106 -103 182 -201 149z m102 -98 c24
-26 23 -76 -1 -100 -47 -46 -124 -15 -124 50 0 62 84 95 125 50z"/>
<path d="M3687 2576 c-49 -18 -64 -32 -88 -77 -53 -104 18 -219 135 -219 169
0 218 211 66 288 -51 25 -61 26 -113 8z m103 -98 c26 -28 26 -72 0 -98 -33
-33 -75 -30 -107 6 -28 31 -29 54 -2 88 27 34 79 36 109 4z"/>
<path d="M1972 2515 c-42 -18 -62 -65 -62 -145 0 -47 4 -64 20 -80 24 -24 34
-25 54 -4 10 10 16 33 16 65 0 72 12 89 61 89 22 0 49 5 60 10 25 14 25 56 0
70 -28 14 -110 12 -149 -5z"/>
<path d="M1434 2358 c-96 -51 -140 -116 -131 -196 4 -36 12 -53 37 -75 28 -25
39 -28 72 -24 46 6 67 21 84 63 11 26 9 44 -15 136 -25 98 -29 105 -47 96z"/>
</g>
</svg>
