<?xml version="1.0" encoding="utf-8"?>
<!DOCTYPE svg PUBLIC "-//W3C//DTD SVG 20010904//EN" "http://www.w3.org/TR/2001/REC-SVG-20010904/DTD/svg10.dtd">
<svg version="1.0" xmlns="http://www.w3.org/2000/svg" width="69px" height="69px" viewBox="0 0 69 69" preserveAspectRatio="xMidYMid meet">
 <g fill="#ff6800">
  <path d="M55.6 32 l-8.9 -9 -12.3 0 -12.4 0 0 7.5 0 7.5 -4.5 0 -4.4 0 -0.3 -9.1 c-0.3 -9 -0.3 -9.2 -3.3 -10.8 -1.7 -0.9 -4.5 -2.6 -6.3 -3.9 -3 -2.2 -3.2 -2.7 -3.2 -8.3 l0 -5.9 34.5 0 34.5 0 0 20.5 0 20.5 -2.3 0 c-1.6 0 -5.1 -2.8 -11.1 -9z"/>
 </g>
 <g fill="#a93e00">
  <path d="M23.2 65.1 c-1.8 -2.2 -3.2 -4.7 -3.2 -5.6 0 -0.8 -0.5 -2.4 -1.2 -3.4 -0.9 -1.4 -0.8 -3.6 0.2 -9.2 0.7 -4.1 1.5 -9 1.7 -10.9 1.1 -9.9 2.9 -11 17.3 -11 l10 0 0 -2.6 c0 -1.4 0.5 -2.4 1.1 -2.2 0.6 0.2 5.3 4.6 10.5 9.8 l9.4 9.5 0 14.8 0 14.7 -21.3 0 -21.4 0 -3.1 -3.9z m24.6 -20.1 c0.3 -2.8 0.1 -3.3 -0.9 -2.2 -0.7 0.6 -3.7 1.2 -6.5 1.2 -4.2 0 -5.9 0.5 -8.1 2.5 l-2.8 2.5 9 -0.3 9 -0.2 0.3 -3.5z"/>
 </g>
 <g fill="#ff5800">
  <path d="M0 38.5 c0 -16.8 0.4 -30.5 0.8 -30.5 0.5 0 2.7 1.3 4.8 2.8 2.1 1.6 5.8 3.7 8.1 4.8 4 1.8 5.5 3.4 3.3 3.4 -0.6 0 -1 3.3 -1 8 0 6.4 0.3 8 1.5 8 0.8 0 1.5 -0.7 1.5 -1.5 0 -0.8 0.7 -1.5 1.6 -1.5 1.3 0 1.5 1.6 1.3 10.7 -0.1 7.2 0.2 10.8 1 11.1 0.6 0.2 1.1 -0.3 1.1 -1.2 0 -0.9 0.5 -1.6 1 -1.6 1.5 0 1.2 2.3 -0.6 4.8 -1.5 2.2 -1.4 2.5 3.1 7.7 l4.7 5.5 -16.1 0 -16.1 0 0 -30.5z"/>
  <path d="M21.3 16.3 c1.5 -0.2 3.9 -0.2 5.5 0 1.5 0.2 0.2 0.4 -2.8 0.4 -3 0 -4.3 -0.2 -2.7 -0.4z"/>
 </g>
 <g fill="#ffffff">
  <path d="M23 56.4 c0 -3.2 3.6 -10.7 6.2 -12.9 2.3 -2 4.1 -2.5 8.2 -2.5 3.9 0 5.7 -0.5 6.9 -1.8 1 -1 1.7 -2.2 1.7 -2.5 0 -0.4 -3.9 -0.7 -8.6 -0.7 -8.1 0 -8.7 0.2 -11.4 2.9 -2.1 2.1 -3.1 4.2 -3.6 8 -0.4 3.1 -1.1 5 -1.8 4.8 -0.7 -0.2 -1.2 -5.6 -1.4 -16.1 l-0.3 -15.7 15.8 0.3 15.8 0.3 0 15.5 0 15.5 -11.5 0.3 c-11.2 0.2 -11.6 0.3 -13.7 3 -1.3 1.5 -2.3 2.2 -2.3 1.6z m13.1 -22.3 c8.5 -0.6 11.9 -1.9 11.9 -4.7 0 -2 -16.1 -1.9 -19.9 0.1 -3.9 2 -6.1 7.6 -2.3 5.9 0.9 -0.4 5.6 -1 10.3 -1.3z"/>
 </g>
</svg>